<svg width="22" height="22" viewBox="0 0 22 22" fill="none" xmlns="http://www.w3.org/2000/svg">
<path d="M2.77148 0.451172H16.0527C18.1426 0.451172 19.2363 1.55469 19.2363 3.66406V13.8984H9.53906C8.12305 13.8984 7.42969 14.6504 7.42969 16.0664V18.8789C7.42969 20.1777 6.6875 20.9102 5.63281 20.9102C4.51953 20.9102 3.74805 20.1582 3.74805 18.8105V2.38477C3.74805 1.39844 3.49414 0.841797 2.77148 0.451172ZM0.164062 5.31445V3.03906C0.164062 2.42383 0.652344 1.98438 1.24805 1.98438C1.83398 1.98438 2.3125 2.42383 2.3125 3.03906V6.42773H1.30664C0.623047 6.42773 0.164062 5.98828 0.164062 5.31445ZM7.63477 5.63672C7.63477 5.98828 7.89844 6.27148 8.26953 6.27148H14.9004C15.252 6.27148 15.5254 5.98828 15.5254 5.63672C15.5254 5.29492 15.252 5.03125 14.9004 5.03125H8.26953C7.89844 5.03125 7.63477 5.29492 7.63477 5.63672ZM7.63477 8.98633C7.63477 9.32812 7.89844 9.60156 8.26953 9.60156H11.7852C12.1465 9.60156 12.4102 9.32812 12.4102 8.98633C12.4102 8.63477 12.1465 8.36133 11.7852 8.36133H8.26953C7.89844 8.36133 7.63477 8.63477 7.63477 8.98633ZM7.87891 21.4473C8.66992 20.6562 8.85547 19.6797 8.85547 18.498V16.4473C8.85547 15.7734 9.31445 15.334 9.99805 15.334H20.1934C20.877 15.334 21.3359 15.7734 21.3359 16.4473V18.332C21.3359 20.334 20.0469 21.4473 18.1133 21.4473H7.87891Z" fill="#3386E3"/>
</svg>
