<svg width="18" height="22" viewBox="0 0 18 22" fill="none" xmlns="http://www.w3.org/2000/svg">
<path d="M8.78125 21.7734C4.06445 21.7734 0.939453 19.0586 0.939453 14.9766C0.939453 11.373 2.64844 10.2305 2.64844 7.98438C2.64844 7.49609 2.57031 6.96875 2.57031 6.65625C2.57031 6.14844 2.88281 5.82617 3.35156 5.82617C4.2207 5.82617 5.17773 6.50977 5.75391 7.7207C5.79297 7.54492 5.80273 7.36914 5.80273 7.18359C5.7832 5.30859 4.67969 3.73633 3.46875 2.28125C3.24414 2.01758 3.11719 1.73438 3.11719 1.45117C3.11719 0.728516 3.77148 0.347656 4.78711 0.347656C10.002 0.347656 17.5605 4.04883 17.5605 12.8867C17.5605 18.2285 14.0449 21.7734 8.78125 21.7734ZM9.01562 18.7363C11.2812 18.7363 12.4531 17.1055 12.4531 15.1523C12.4531 13.1895 11.3301 11.1094 9.2207 10.1523C9.09375 10.0938 8.99609 10.1621 9.01562 10.3086C9.19141 11.8125 9.00586 13.2188 8.50781 13.9805C8.2832 13.3945 7.99023 12.8965 7.56055 12.5059C7.46289 12.418 7.35547 12.4668 7.3457 12.5938C7.18945 13.7754 5.99805 14.332 5.99805 16.0215C5.99805 17.6523 7.19922 18.7363 9.01562 18.7363Z" fill="#3386E3"/>
</svg>
