<svg width="22" height="22" viewBox="0 0 22 22" fill="none" xmlns="http://www.w3.org/2000/svg">
<path d="M9.86133 21.3398C9.26562 21.3398 8.82617 20.9883 8.69922 20.4121L8.21094 18.3516C7.87891 18.2344 7.56641 18.1074 7.27344 17.9707L5.47656 19.084C4.98828 19.3867 4.41211 19.3379 4.01172 18.9375L2.76172 17.6777C2.35156 17.2773 2.29297 16.6816 2.61523 16.1934L3.71875 14.4062C3.58203 14.1133 3.45508 13.8008 3.35742 13.498L1.27734 13.0098C0.701172 12.8828 0.359375 12.4434 0.359375 11.8574V10.0996C0.359375 9.52344 0.701172 9.07422 1.27734 8.94727L3.33789 8.44922C3.45508 8.10742 3.58203 7.80469 3.69922 7.54102L2.5957 5.71484C2.2832 5.2168 2.32227 4.66016 2.74219 4.25L4.01172 2.99023C4.43164 2.60938 4.93945 2.55078 5.4375 2.82422L7.26367 3.94727C7.55664 3.80078 7.87891 3.67383 8.21094 3.56641L8.69922 1.48633C8.82617 0.910156 9.26562 0.558594 9.86133 0.558594H11.6484C12.2344 0.558594 12.6738 0.910156 12.8008 1.48633L13.2988 3.57617C13.6309 3.69336 13.9434 3.82031 14.2266 3.95703L16.0625 2.82422C16.5605 2.55078 17.0781 2.61914 17.4883 2.99023L18.7578 4.25C19.1777 4.66016 19.2168 5.2168 18.9043 5.71484L17.8008 7.54102C17.918 7.80469 18.0547 8.10742 18.1621 8.44922L20.2227 8.94727C20.7988 9.07422 21.1406 9.52344 21.1406 10.0996V11.8574C21.1406 12.4434 20.7988 12.8828 20.2227 13.0098L18.1426 13.498C18.0449 13.8008 17.918 14.1133 17.7812 14.4062L18.8848 16.1934C19.207 16.6816 19.1484 17.2773 18.748 17.6777L17.4883 18.9375C17.0879 19.3379 16.5117 19.3867 16.0332 19.084L14.2266 17.9707C13.9336 18.1074 13.6211 18.2344 13.2891 18.3516L12.8008 20.4121C12.6738 20.9883 12.2344 21.3398 11.6484 21.3398H9.86133ZM10.75 14.3672C12.6348 14.3672 14.168 12.8242 14.168 10.9395C14.168 9.07422 12.6348 7.54102 10.75 7.54102C8.875 7.54102 7.3418 9.07422 7.3418 10.9395C7.3418 12.8242 8.875 14.3672 10.75 14.3672Z" fill="#3386E3"/>
</svg>
