<svg width="23" height="22" viewBox="0 0 23 22" fill="none" xmlns="http://www.w3.org/2000/svg">
<path d="M4.56055 21.4414C4.35872 21.2917 4.23503 21.0898 4.18945 20.8359C4.15039 20.582 4.19271 20.2793 4.31641 19.9277L6.35742 13.8535L1.14258 10.1035C0.836589 9.88867 0.625 9.66732 0.507812 9.43945C0.390625 9.21159 0.371094 8.97721 0.449219 8.73633C0.527344 8.50195 0.680339 8.32617 0.908203 8.20898C1.13607 8.0918 1.4388 8.03646 1.81641 8.04297L8.21289 8.08203L10.1562 1.97852C10.2734 1.62044 10.4199 1.35026 10.5957 1.16797C10.778 0.985677 10.9928 0.894531 11.2402 0.894531C11.4941 0.894531 11.709 0.985677 11.8848 1.16797C12.0671 1.35026 12.2168 1.62044 12.334 1.97852L14.2773 8.08203L20.6738 8.04297C21.0514 8.03646 21.3542 8.0918 21.582 8.20898C21.8099 8.32617 21.9629 8.50195 22.041 8.73633C22.1191 8.97721 22.0996 9.21159 21.9824 9.43945C21.8652 9.66732 21.6536 9.88867 21.3477 10.1035L16.1328 13.8535L18.1738 19.9277C18.2975 20.2793 18.3366 20.582 18.291 20.8359C18.252 21.0898 18.1315 21.2917 17.9297 21.4414C17.7279 21.5977 17.5 21.6497 17.2461 21.5977C16.9922 21.5521 16.7155 21.4219 16.416 21.207L11.2402 17.4082L6.07422 21.207C5.77474 21.4219 5.49805 21.5521 5.24414 21.5977C4.99023 21.6497 4.76237 21.5977 4.56055 21.4414Z" fill="#3386E3"/>
</svg>
